<?xml version="1.0" standalone="no"?>
<!DOCTYPE svg PUBLIC "-//W3C//DTD SVG 20010904//EN"
 "http://www.w3.org/TR/2001/REC-SVG-20010904/DTD/svg10.dtd">
<svg version="1.0" xmlns="http://www.w3.org/2000/svg"
 width="581.000000pt" height="169.000000pt" viewBox="0 0 581.000000 169.000000"
 preserveAspectRatio="xMidYMid meet">

<g transform="translate(0.000000,169.000000) scale(0.100000,-0.100000)"
fill="#000000" stroke="none">
<path d="M712 1418 l3 -33 68 -3 67 -3 0 -59 0 -60 95 0 95 0 0 30 c0 29 -1
29 -62 32 l-63 3 -3 63 -3 62 -100 0 -100 0 3 -32z"/>
<path d="M590 1330 l0 -100 65 0 65 0 0 -65 0 -65 30 0 30 0 0 100 0 100 -60
0 -60 0 0 65 0 65 -35 0 -35 0 0 -100z"/>
<path d="M1110 1265 l0 -65 -60 0 -60 0 0 -100 0 -100 30 0 30 0 0 65 0 65 65
0 65 0 0 100 0 100 -35 0 -35 0 0 -65z"/>
<path d="M320 1290 l0 -30 65 0 65 0 0 -75 0 -75 100 0 100 0 0 30 c0 29 -1
29 -62 32 l-63 3 -3 73 -3 72 -99 0 -100 0 0 -30z"/>
<path d="M2116 1278 c-39 -55 -6 -128 57 -128 66 0 101 80 57 128 -29 31 -93
31 -114 0z"/>
<path d="M3835 1254 c-22 -13 -57 -29 -77 -34 -44 -12 -51 -40 -15 -55 22 -10
22 -12 25 -241 2 -186 5 -234 17 -244 11 -9 30 -6 89 14 41 14 81 26 90 26 10
0 16 9 16 25 0 18 -5 25 -19 25 -37 0 -41 20 -43 266 -3 231 -4 239 -23 241
-11 1 -38 -9 -60 -23z"/>
<path d="M1676 1207 c-54 -31 -79 -79 -72 -141 7 -61 42 -108 108 -144 80 -43
128 -81 138 -108 15 -37 -7 -76 -48 -88 -46 -13 -114 20 -132 63 -10 26 -18
31 -47 31 -34 0 -35 -1 -29 -31 3 -17 6 -49 6 -70 0 -35 3 -39 25 -39 14 0 25
5 25 10 0 15 53 12 96 -6 90 -38 208 7 246 93 44 99 -1 179 -141 252 -83 43
-94 53 -105 88 -5 17 -1 29 18 48 38 37 63 32 116 -25 65 -70 80 -67 80 15 0
71 -14 90 -50 67 -13 -8 -29 -8 -52 -2 -59 18 -139 12 -182 -13z"/>
<path d="M4887 1213 c-2 -5 -36 -105 -76 -223 -39 -118 -75 -220 -79 -226 -11
-16 -48 -34 -71 -34 -14 0 -21 -6 -21 -20 0 -19 7 -20 125 -20 118 0 125 1
125 20 0 17 -7 20 -39 20 -57 0 -66 17 -45 84 l18 56 65 0 66 0 22 -57 c25
-63 20 -80 -25 -85 -16 -2 -28 -10 -30 -20 -3 -17 10 -18 157 -18 154 0 161 1
161 20 0 13 -7 20 -20 20 -40 0 -67 50 -150 270 l-83 220 -48 0 c-26 0 -50 -3
-52 -7z m27 -235 l25 -68 -51 0 c-36 0 -49 4 -45 13 2 6 12 38 21 71 10 32 19
57 21 55 2 -2 15 -34 29 -71z"/>
<path d="M5270 1201 c0 -12 10 -21 27 -26 15 -3 31 -12 35 -18 4 -7 8 -100 8
-208 0 -206 -3 -219 -47 -219 -16 0 -23 -6 -23 -20 0 -19 7 -20 145 -20 137 0
145 1 145 19 0 14 -8 21 -27 23 l-28 3 -3 213 -2 214 30 11 c18 7 30 19 30 29
0 16 -13 18 -145 18 -136 0 -145 -1 -145 -19z"/>
<path d="M330 1125 l0 -65 -65 0 -65 0 0 -100 0 -100 35 0 35 0 0 65 0 65 65
0 65 0 0 100 0 100 -35 0 -35 0 0 -65z"/>
<path d="M840 1115 l0 -65 -60 0 -60 0 0 -75 0 -75 35 0 c35 0 35 0 35 45 l0
45 60 0 60 0 0 95 0 95 -35 0 -35 0 0 -65z"/>
<path d="M2190 1109 c-25 -12 -65 -27 -90 -33 -33 -9 -46 -18 -48 -33 -2 -16
3 -22 20 -25 23 -3 23 -5 26 -140 l3 -137 -26 -7 c-16 -4 -25 -13 -25 -25 0
-18 9 -19 130 -19 121 0 130 1 130 19 0 12 -9 21 -25 25 l-25 6 -2 192 c-2
116 -7 193 -13 194 -5 2 -30 -6 -55 -17z"/>
<path d="M2470 1105 c-25 -13 -62 -29 -82 -35 -32 -9 -38 -15 -38 -37 0 -15 3
-23 6 -20 4 3 15 2 26 -4 17 -9 18 -21 16 -137 l-3 -127 -27 -13 c-16 -7 -28
-20 -28 -28 0 -11 24 -14 135 -14 128 0 135 1 135 20 0 13 -7 20 -20 20 -30 0
-40 31 -40 132 0 87 2 97 30 142 26 40 35 47 57 44 36 -4 41 -25 42 -173 1
-125 -5 -145 -41 -145 -11 0 -18 -7 -18 -20 0 -19 7 -20 135 -20 125 0 135 1
135 19 0 13 -9 20 -30 25 l-30 6 0 113 c0 111 1 115 30 155 21 30 37 42 55 42
33 0 36 -17 33 -180 -3 -131 -4 -135 -25 -138 -15 -2 -23 -10 -23 -23 0 -18 8
-19 130 -19 121 0 130 1 130 19 0 11 -9 21 -24 25 -23 6 -23 8 -28 153 -7 200
-24 233 -123 233 -55 0 -77 -10 -127 -58 -34 -32 -38 -34 -44 -16 -4 10 -18
31 -32 47 -46 49 -151 31 -207 -34 l-24 -29 -3 47 c-4 58 -15 62 -78 28z"/>
<path d="M3305 1106 c-22 -13 -59 -30 -82 -37 -33 -9 -43 -17 -43 -33 0 -15 7
-22 22 -23 11 -1 25 -8 30 -15 14 -21 5 -435 -9 -450 -19 -18 -16 -48 4 -48 9
0 65 16 125 36 87 29 108 40 108 55 0 13 -7 19 -23 19 -32 0 -47 18 -47 57 0
36 6 39 34 18 53 -40 181 7 233 86 32 48 41 128 23 194 -14 50 -68 118 -111
140 -36 19 -112 19 -148 0 -27 -13 -29 -13 -34 5 -7 26 -33 25 -82 -4z m187
-72 c22 -38 42 -180 34 -239 -4 -24 -15 -54 -25 -67 -16 -20 -22 -21 -45 -10
-52 23 -66 64 -66 196 0 98 3 123 17 138 25 28 63 19 85 -18z"/>
<path d="M4126 1097 c-22 -12 -53 -39 -70 -60 -30 -37 -31 -43 -31 -131 0 -85
2 -96 28 -135 56 -84 200 -119 288 -69 42 23 74 62 64 78 -10 17 -34 11 -45
-10 -22 -41 -98 -63 -141 -40 -27 15 -49 63 -49 109 l0 40 117 3 118 3 13 28
c29 60 -13 147 -88 185 -61 30 -150 30 -204 -1z m141 -47 c7 -14 13 -46 13
-72 l0 -48 -59 0 -60 0 5 38 c9 65 14 80 30 97 23 22 56 15 71 -15z"/>
<path d="M460 1025 l0 -35 70 0 70 0 0 -45 c0 -43 1 -45 30 -45 l30 0 0 80 0
80 -100 0 -100 0 0 -35z"/>
<path d="M1108 998 l-3 -63 -77 -3 -78 -3 0 -29 0 -30 115 0 115 0 0 60 0 60
50 0 50 0 0 35 0 35 -85 0 -84 0 -3 -62z"/>
<path d="M330 865 l0 -65 -55 0 c-54 0 -55 0 -55 -30 l0 -30 90 0 90 0 0 60 0
60 75 0 75 0 0 35 0 35 -110 0 -110 0 0 -65z"/>
<path d="M1238 868 l-3 -63 -62 -3 -63 -3 0 -94 0 -95 35 0 35 0 0 65 0 65 60
0 60 0 0 95 0 95 -30 0 c-29 0 -29 -1 -32 -62z"/>
<path d="M840 821 l0 -81 100 0 100 0 0 35 0 35 -64 0 -65 0 -3 43 c-3 39 -5
42 -35 45 l-33 3 0 -80z"/>
<path d="M590 720 l0 -110 35 0 35 0 0 80 0 80 65 0 65 0 0 30 0 30 -100 0
-100 0 0 -110z"/>
<path d="M450 730 l0 -60 -60 0 -60 0 0 -100 0 -100 30 0 30 0 0 65 0 65 65 0
65 0 0 95 0 95 -35 0 -35 0 0 -60z"/>
<path d="M720 600 l0 -100 60 0 60 0 0 -65 0 -65 35 0 35 0 0 95 0 95 -60 0
-60 0 0 70 0 70 -35 0 -35 0 0 -100z"/>
<path d="M860 660 l0 -30 60 0 60 0 0 -80 0 -80 100 0 100 0 0 35 0 35 -65 0
-65 0 0 75 0 75 -95 0 -95 0 0 -30z"/>
<path d="M460 505 l0 -35 65 0 65 0 0 -60 0 -60 100 0 100 0 0 30 0 30 -65 0
-65 0 0 65 0 65 -100 0 -100 0 0 -35z"/>
</g>
</svg>
